<svg width="624" height="110" viewBox="0 0 347 55" fill="none" xmlns="http://www.w3.org/2000/svg">
<path d="M4.42 12.8L7.76 23.16L11.06 12.8H14.52L9.36 27H6.14L0.94 12.8H4.42Z" fill="#2D3047"/>
<path d="M8.54 24.78C8.54 23.9133 8.7 23.0667 9.02 22.24C9.34 21.4 9.80667 20.64 10.42 19.96C11.0333 19.28 11.78 18.74 12.66 18.34C13.54 17.9267 14.54 17.72 15.66 17.72C16.9933 17.72 18.1467 18.0067 19.12 18.58C20.1067 19.1533 20.84 19.9 21.32 20.82L18.8 22.58C18.5867 22.0733 18.3 21.68 17.94 21.4C17.5933 21.12 17.2067 20.9267 16.78 20.82C16.3667 20.7 15.9667 20.64 15.58 20.64C14.9533 20.64 14.4067 20.7667 13.94 21.02C13.4733 21.26 13.0867 21.5867 12.78 22C12.4733 22.4133 12.2467 22.8733 12.1 23.38C11.9533 23.8867 11.88 24.3933 11.88 24.9C11.88 25.46 11.9667 26 12.14 26.52C12.3133 27.04 12.56 27.5 12.88 27.9C13.2133 28.3 13.6133 28.62 14.08 28.86C14.5467 29.0867 15.06 29.2 15.62 29.2C16.02 29.2 16.4267 29.1333 16.84 29C17.2533 28.8667 17.6333 28.66 17.98 28.38C18.34 28.0867 18.6133 27.7067 18.8 27.24L21.48 28.82C21.2 29.5133 20.74 30.1067 20.1 30.6C19.46 31.0933 18.7333 31.4733 17.92 31.74C17.12 31.9933 16.3267 32.12 15.54 32.12C14.5133 32.12 13.5667 31.9133 12.7 31.5C11.8467 31.0733 11.1067 30.5133 10.48 29.82C9.86667 29.1133 9.38667 28.3267 9.04 27.46C8.70667 26.58 8.54 25.6867 8.54 24.78Z" fill="#2D3047"/>
</svg>

